<?xml version="1.0" encoding="utf-8"?>
<!-- Generator: Adobe Illustrator 15.0.2, SVG Export Plug-In . SVG Version: 6.00 Build 0)  -->
<!DOCTYPE svg PUBLIC "-//W3C//DTD SVG 1.1//EN" "http://www.w3.org/Graphics/SVG/1.1/DTD/svg11.dtd">
<svg version="1.1" id="Layer_1" xmlns="http://www.w3.org/2000/svg" xmlns:xlink="http://www.w3.org/1999/xlink" x="0px" y="0px"
	 width="415px" height="60px" viewBox="0 0 415 60" enable-background="new 0 0 415 60" xml:space="preserve">
<g>
	<g>
		<path fill="#00549E" d="M277.186,54.7c1.199,0,2.402-0.135,3.451-0.354c-6-3.939-10.051-10.755-10.051-18.543
			s4.051-14.602,10.051-18.541c-1.049-0.221-2.252-0.354-3.451-0.354c-10.5,0-18.895,8.453-18.895,18.896
			C258.291,46.247,266.686,54.7,277.186,54.7z"/>
		<path fill="#00549E" d="M283.186,35.804c0,5.623,3.152,10.443,7.803,12.834c1.502-1.505,2.549-3.32,3.449-5.223
			c-3.6-0.664-6.301-3.805-6.301-7.611c0-3.806,2.701-6.946,6.301-7.611c-0.9-1.945-1.947-3.715-3.449-5.222
			C286.338,25.361,283.186,30.186,283.186,35.804z"/>
		<path fill="#00549E" d="M289.721,36.026c0,3.229,1.949,6.016,4.803,7.167c0.898-2.211,1.498-4.646,1.498-7.167
			c0-2.522-0.6-4.958-1.498-7.17C291.67,30.007,289.721,32.794,289.721,36.026z"/>
		<path fill="#00549E" d="M275.387,35.804c0,7.17,3.449,13.54,8.701,17.567c2.25-0.884,4.352-2.167,5.998-3.804
			c-5.848-1.814-10.051-7.303-10.051-13.764s4.203-11.947,10.051-13.761c-1.646-1.638-3.748-2.92-5.998-3.807
			C278.836,22.262,275.387,28.636,275.387,35.804z"/>
		<path fill="#00549E" d="M284.088,18.236c2.85-2.124,6.15-3.627,9.75-4.247v-0.268c-0.449-0.042-0.748-0.042-1.197-0.042
			c-4.354,0-8.553,1.327-12.004,3.583C281.838,17.484,283.037,17.794,284.088,18.236z"/>
		<path fill="#00549E" d="M295.188,21.6v-0.176c-0.297-0.045-0.596-0.045-0.75-0.045c-1.504,0-2.998,0.265-4.352,0.664
			c0.305,0.309,0.602,0.619,0.902,0.928C292.336,22.307,293.689,21.82,295.188,21.6z"/>
		<path fill="#00549E" d="M296.238,28.192v-0.089c-0.148,0-0.303-0.045-0.303-0.045c-0.596,0-1.045,0.045-1.498,0.134
			c0.154,0.135,0.154,0.312,0.154,0.443C295.188,28.459,295.639,28.282,296.238,28.192z"/>
		<path fill="#00549E" d="M295.936,43.548c0,0,0.154-0.045,0.303-0.045v-0.088c-0.6-0.09-1.051-0.265-1.646-0.441
			c0,0.132,0,0.264-0.154,0.441C294.891,43.46,295.34,43.548,295.936,43.548z"/>
		<path fill="#00549E" d="M290.988,49.832c0.15,0,0.15,0,0.301,0.044c0.6,0.133,1.201,0.221,1.801,0.266
			c0.148,0,0.299,0.045,0.299,0.045c0.301,0,0.602,0.043,1.049,0.043c0.154,0,0.453-0.043,0.75-0.043v-0.162
			c-0.1-0.017-0.199-0.031-0.297-0.061c0,0-0.156,0-0.299-0.045c-0.154-0.043-0.305-0.087-0.453-0.129h-0.148
			c-0.152-0.047-0.301-0.092-0.602-0.18c-0.15-0.043-0.455-0.132-0.602-0.222c-0.598-0.175-1.199-0.44-1.799-0.751
			c-0.301,0.311-0.598,0.617-0.902,0.93C290.391,49.654,290.688,49.743,290.988,49.832z"/>
		<path fill="#00549E" d="M293.838,57.622c-3.6-0.621-6.9-2.126-9.75-4.251c-1.051,0.442-2.25,0.753-3.451,0.976
			c3.451,2.256,7.65,3.582,12.004,3.582c0.449,0,0.748,0,1.197-0.041V57.622z"/>
		<path d="M320.391,32.883l-9.152-11.769h-3.6v19.425h3.6V28.548c0-0.666,0-1.285-0.146-2.079c0.295,0.753,0.746,1.369,1.197,1.99
			l7.352,9.78h0.9l7.35-9.735c0.299-0.445,0.602-1.15,1.053-2.035c-0.152,1.018-0.152,1.681-0.152,2.079v11.991h4.197V21.114h-3.598
			L320.391,32.883z"/>
		<polygon points="341.992,32.087 350.844,32.087 350.844,28.768 341.992,28.768 341.992,24.434 357.295,24.434 357.295,21.114 
			337.492,21.114 337.492,40.539 357.443,40.539 357.443,36.909 341.992,36.909 		"/>
		<path d="M377.848,21.114h-16.65v19.425h4.346v-7.566h12.305c2.852,0,4.352-1.061,4.352-3.762v-4.334
			C382.199,22.175,380.699,21.114,377.848,21.114z M377.848,28.104c0,1.284-0.752,1.55-2.102,1.55h-10.203v-5.176h10.203
			c1.35,0,2.102,0.264,2.102,1.548V28.104z"/>
		<path d="M400.799,28.68h-12.002v-4.16H401.4v2.213l4.053-0.929v-0.442c0-3.318-1.354-4.247-4.805-4.247h-11.102
			c-3.6,0-4.801,0.929-4.801,4.601v2.123c0,3.675,1.201,4.603,4.801,4.603h12.15v4.469h-13.801v-2.301l-3.898,0.842v0.486
			c0,3.674,1.199,4.603,4.799,4.603h12.002c3.752,0,4.953-0.929,4.953-4.603v-2.654C405.752,29.653,404.551,28.68,400.799,28.68z"/>
		<g>
			<path d="M410.555,21.138c1.307,0,2.406,1.034,2.406,2.39c0,1.381-1.1,2.416-2.406,2.416c-1.32,0-2.424-1.035-2.424-2.416
				C408.131,22.172,409.234,21.138,410.555,21.138z M410.555,25.589c1.111,0,1.969-0.887,1.969-2.062
				c0-1.149-0.857-2.036-1.969-2.036c-1.125,0-1.988,0.887-1.988,2.036C408.566,24.702,409.43,25.589,410.555,25.589z
				 M409.613,22.133h1.086c0.666,0,0.982,0.264,0.982,0.804c0,0.508-0.32,0.719-0.738,0.764l0.805,1.24h-0.473l-0.764-1.209h-0.461
				v1.209h-0.438V22.133z M410.051,23.379h0.455c0.385,0,0.742-0.018,0.742-0.462c0-0.373-0.32-0.429-0.617-0.429h-0.58V23.379z"/>
		</g>
		<g>
			<path d="M321.293,46.866h-3.752v1.062h2.25v0.795h-2.25v1.152h3.752v0.842h-4.801v-4.646h4.801V46.866z M337.943,50.718h-4.5
				v-4.646h1.049v3.805h3.451V50.718z M342.744,48.724h-2.1v-0.926h2.1V48.724z M350.543,46.913h-2.102v3.805h-1.049v-3.805h-2.25
				v-0.842h5.4V46.913z M354.447,50.718h-1.053v-4.646h1.053V50.718z M364.492,50.718h-0.9v-2.834c0-0.131,0-0.265,0-0.531
				c-0.146,0.225-0.146,0.4-0.295,0.488l-1.65,2.346h-0.303l-1.65-2.346c-0.148-0.133-0.299-0.311-0.299-0.488
				c0,0.225,0,0.355,0,0.531v2.834h-0.898v-4.646h0.898l2.1,2.832l2.252-2.832h0.746V50.718z M373.195,46.866h-3.75v1.062h2.252
				v0.795h-2.252v1.152h3.75v0.842h-4.801v-4.646h4.801V46.866z M377.096,50.584l-0.898,1.371h-0.451l0.75-1.371h-0.449
				c0,0,0,0-0.152,0c-0.148,0-0.148-0.133-0.148-0.354v-0.575c0-0.311,0-0.311,0.301-0.311h0.752h0.15
				c0.146,0,0.146,0.089,0.146,0.311V50.584z M386.551,50.718h-1.053v-4.646h1.053V50.718z M396,50.718h-0.752l-3.447-2.834
				c-0.152-0.131-0.152-0.265-0.303-0.396c0,0.354,0,0.618,0,0.752v2.479h-0.902v-4.646h0.605l3.297,2.742
				c0.301,0.178,0.449,0.311,0.602,0.53c0-0.396-0.152-0.663-0.152-0.796v-2.477H396V50.718z M404.85,47.619l-1.047,0.179v-0.885
				h-2.854v2.963h2.854v-1.018l1.047,0.221v0.575c0,0.839-0.152,1.063-1.047,1.063h-2.854c-0.898,0-1.049-0.225-1.049-1.063v-2.478
				c0-0.885,0.15-1.105,1.049-1.105h2.854c0.895,0,1.047,0.221,1.047,1.105V47.619z"/>
			<path d="M408.148,49.344c-0.146,0-0.146,0-0.299,0h-0.6c-0.299,0-0.299,0-0.299,0.311v0.753c0,0.222,0,0.311,0.148,0.311
				c0.15,0,0.15,0,0.15,0h0.6c0.299,0,0.451,0,0.451-0.311v-0.753C408.301,49.433,408.301,49.344,408.148,49.344z"/>
		</g>
		<path d="M311.689,48.991c0.752,0,1.049-0.268,1.049-0.928v-1.064c0-0.662-0.297-0.928-1.049-0.928h-3.9v4.646h1.051v-1.727h1.051
			l1.799,1.727h1.5l-2.098-1.727H311.689z M308.84,48.194v-1.281h2.398c0.301,0,0.451,0.042,0.451,0.352v0.533
			c0,0.308-0.15,0.396-0.451,0.396H308.84z"/>
		<path d="M326.691,46.071l-2.701,4.646h1.051l0.602-1.02h3.002l0.445,1.02h1.203l-2.555-4.646H326.691z M326.09,48.903l1.051-1.904
			l1.049,1.904H326.09z"/>
	</g>
	<g>
		<path d="M7.472,16.059v3.615H2.179v-3.615H7.472z M7.472,21.737v16.328H2.179V21.737H7.472z"/>
		<path d="M12.246,21.737h5.26v2.323c0.84-0.873,2.709-2.807,7.194-2.807c3.938,0,5.712,1.808,6.165,2.323
			c1.42,1.614,1.42,3.679,1.451,5.455v9.066l-5.324-0.033v-8.357c0-1.226-0.064-2.741-1.29-3.774
			c-0.549-0.452-1.42-0.938-3.228-0.938c-1.484,0-2.646,0.389-3.324,0.775c-1.484,0.871-1.645,2.418-1.645,3.486v8.808h-5.26V21.737
			z"/>
		<path d="M37.605,17.382h5.291v4.355h3.646V24.9h-3.646v7.391c0,1.581,0.549,1.935,2.065,1.935c0.741,0,1.063-0.03,1.614-0.096
			v3.805c-1.291,0.131-2.582,0.26-3.873,0.26c-1.129,0-2.259-0.129-3.162-0.58c-1.904-1-1.936-2.744-1.936-3.97V24.9h-2.646v-3.163
			h2.646V17.382z"/>
		<path d="M54.8,30.805c0.13,0.519,0.42,1.518,1,2.193c1.131,1.357,2.938,1.872,4.682,1.872c3.451,0,4.711-1.645,5.194-2.257
			l5.519,0.547c-2.39,3.937-6.389,5.55-10.973,5.55c-2.775,0-5.646-0.516-7.81-2.291c-2.161-1.742-3.065-4.356-3.065-6.679
			c0-6.002,5.131-8.646,10.939-8.646c2.227,0,6.002,0.484,8.488,3.127c2.162,2.293,2.193,4.906,2.226,6.584H54.8z M65.128,27.867
			c-0.098-0.611-0.355-1.547-1.453-2.192c-0.773-0.452-2.064-0.839-3.486-0.839c-1.256,0-2.678,0.291-3.645,0.936
			c-0.937,0.612-1.26,1.322-1.582,2.096H65.128z"/>
		<path d="M74.707,15.284h5.292v22.781h-5.292V15.284z"/>
		<path d="M84.16,15.284h5.291v22.781H84.16V15.284z"/>
		<path d="M99.582,16.059v3.615h-5.293v-3.615H99.582z M99.582,21.737v16.328h-5.293V21.737H99.582z"/>
		<path d="M118.716,34.711c-0.904,0.806-2.841,2.644-6.811,2.644c-2.806,0-5-1.031-6.096-1.967
			c-2.068-1.743-2.584-4.163-2.584-5.872c0-4.875,3.422-8.327,8.875-8.327c3.711,0,5.549,1.55,6.615,2.456v-1.94h5.098v13.812
			c0,2.291,0,5.162-2.517,7.098c-2.163,1.682-5.519,2.033-7.969,2.033c-7.36,0-9.103-3.289-9.909-5.969h5.744
			c0.678,1.936,2.518,2.227,4.551,2.227c1.193,0,2.453-0.193,3.388-0.773c1.549-0.938,1.581-2.357,1.614-3.713V34.711z
			 M108.746,29.224c0,2.163,1.418,4.421,4.806,4.421c2.55,0,5.132-1.354,5.132-4.421c0-2.903-2.549-4.289-5.195-4.259
			C110.648,24.996,108.746,26.676,108.746,29.224z"/>
		<path d="M127.908,21.704h5.324v8.587c0,1.157,0,2.354,1.064,3.32c0.938,0.906,2.292,1.1,3.584,1.1
			c1.483,0,3.098-0.355,3.967-1.289c0.84-0.873,0.906-2.133,0.937-3.551v-8.167h5.261v16.361h-5.261v-2.322
			c-1.063,0.998-2.808,2.709-7.485,2.709c-3.162,0-4.648-1.033-5.324-1.549c-1.969-1.516-2.066-3.226-2.066-5.227V21.704z"/>
		<path d="M172.24,36.065c0.066,0.871,0.162,1.227,0.744,2h-5.775c-0.26-0.773-0.291-1.291-0.324-1.742
			c-1.742,1.031-3.646,2.16-7.293,2.16c-1.291,0-2.58-0.096-3.807-0.449c-2.291-0.646-4.036-2.355-4.036-4.97
			c0-5.163,4.969-5.229,10.102-5.291h5.033c0.033-1.39,0.096-2.938-4.582-2.938c-1.777,0-3.904,0.16-4.324,1.484h-5.389
			c0.193-0.969,0.483-2.518,2.387-3.743c2.227-1.389,5.939-1.421,7.488-1.421c9.809,0,9.775,3.809,9.775,7.229V36.065z
			 M159.367,30.838c-0.389,0.095-2.002,0.451-2.002,2.034c0,2.062,2.873,2.098,3.551,2.098c2.225,0,4.453-0.907,5.453-2.456
			c0.516-0.738,0.484-1.256,0.516-2C163.367,30.514,160.85,30.514,159.367,30.838z"/>
		<path d="M182.336,24.545c0.775-1.227,2.096-3.26,6.84-3.356v4.81c-0.449-0.033-0.838-0.064-1.385-0.064
			c-0.451,0-2.291,0.031-3.549,0.709c-1.648,0.873-1.906,2.131-1.906,3.551v7.872h-5.357V21.737h5.357V24.545z"/>
		<path d="M206.633,15.252h5.229v22.813h-5.229v-1.969c-0.322,0.322-0.676,0.645-1.033,0.938c-1.129,0.805-3.064,1.611-5.42,1.611
			c-5.098,0-8.875-3.42-8.875-8.646c0-5.132,3.742-8.778,8.842-8.778c1.389,0,2.646,0.26,3.773,0.676
			c1.359,0.486,2.037,1.034,2.713,1.549V15.252z M196.791,29.838c0,1.904,0.871,5.163,4.873,5.163c2.291,0,5.066-1.161,5.066-5.163
			c0-2.68-1.322-3.582-1.807-3.904c-1.004-0.68-2.389-0.999-3.646-0.938C198.404,25.159,196.791,27.287,196.791,29.838z"/>
	</g>
	<g>
		<path d="M218.561,15.096c0.479,0,0.949,0.123,1.406,0.37s0.814,0.599,1.068,1.058c0.256,0.459,0.385,0.938,0.385,1.436
			c0,0.493-0.127,0.967-0.379,1.422c-0.25,0.455-0.604,0.809-1.057,1.061c-0.455,0.251-0.93,0.377-1.424,0.377
			c-0.496,0-0.971-0.126-1.424-0.377c-0.455-0.252-0.809-0.605-1.061-1.061c-0.254-0.455-0.379-0.929-0.379-1.422
			c0-0.498,0.127-0.977,0.385-1.436c0.256-0.459,0.613-0.811,1.07-1.058C217.611,15.219,218.08,15.096,218.561,15.096z
			 M218.561,15.57c-0.402,0-0.795,0.103-1.174,0.309c-0.381,0.206-0.68,0.5-0.895,0.884c-0.215,0.383-0.322,0.782-0.322,1.196
			c0,0.412,0.105,0.807,0.318,1.186c0.211,0.377,0.506,0.672,0.885,0.883s0.775,0.316,1.188,0.316s0.807-0.105,1.186-0.316
			s0.674-0.506,0.885-0.883c0.209-0.379,0.314-0.773,0.314-1.186c0-0.414-0.107-0.813-0.32-1.196
			c-0.215-0.384-0.512-0.678-0.893-0.884C219.35,15.673,218.959,15.57,218.561,15.57z M217.305,19.541v-3.08h1.059
			c0.361,0,0.623,0.029,0.785,0.086c0.16,0.057,0.289,0.156,0.387,0.297c0.096,0.143,0.143,0.293,0.143,0.451
			c0,0.226-0.08,0.422-0.24,0.588c-0.16,0.167-0.373,0.261-0.639,0.281c0.109,0.045,0.195,0.1,0.262,0.162
			c0.123,0.122,0.275,0.326,0.455,0.611l0.375,0.604h-0.607l-0.271-0.486c-0.215-0.381-0.389-0.62-0.52-0.717
			c-0.092-0.07-0.225-0.105-0.398-0.105h-0.293v1.309H217.305z M217.801,17.807h0.604c0.289,0,0.484-0.043,0.59-0.129
			s0.156-0.199,0.156-0.341c0-0.091-0.023-0.173-0.074-0.245c-0.051-0.071-0.121-0.125-0.211-0.16s-0.256-0.053-0.498-0.053h-0.566
			V17.807z"/>
	</g>
	<g>
		<path d="M2.04,55.815v-6.086h2.585c0.65,0,1.123,0.055,1.417,0.164c0.295,0.109,0.531,0.305,0.708,0.584
			c0.177,0.279,0.266,0.6,0.266,0.959c0,0.457-0.134,0.834-0.402,1.131S5.944,53.052,5.41,53.13c0.266,0.154,0.485,0.324,0.658,0.51
			s0.406,0.516,0.699,0.988l0.743,1.188H6.041l-0.888-1.324c-0.315-0.473-0.531-0.771-0.647-0.895s-0.239-0.207-0.369-0.254
			c-0.13-0.045-0.336-0.068-0.619-0.068H3.268v2.541H2.04z M3.268,52.304h0.909c0.59,0,0.958-0.025,1.104-0.074
			c0.146-0.051,0.261-0.137,0.344-0.258s0.125-0.273,0.125-0.457c0-0.205-0.055-0.369-0.164-0.496
			c-0.109-0.125-0.264-0.205-0.463-0.238c-0.1-0.014-0.398-0.021-0.896-0.021H3.268V52.304z"/>
		<path d="M8.905,55.815v-6.086h4.171v1.029h-2.942V52.2h2.54v1.029h-2.54v2.586H8.905z"/>
		<path d="M14.773,55.815v-6.086h1.229v6.086H14.773z"/>
		<path d="M17.891,49.729h2.245c0.507,0,0.893,0.039,1.158,0.117c0.357,0.105,0.663,0.291,0.917,0.561
			c0.255,0.268,0.448,0.596,0.581,0.984s0.199,0.869,0.199,1.439c0,0.5-0.062,0.932-0.187,1.295
			c-0.152,0.441-0.369,0.801-0.651,1.074c-0.213,0.207-0.501,0.369-0.863,0.486c-0.271,0.086-0.634,0.129-1.088,0.129h-2.312V49.729
			z M19.12,50.759v4.031h0.917c0.343,0,0.591-0.02,0.743-0.059c0.199-0.049,0.365-0.135,0.496-0.254s0.238-0.314,0.321-0.586
			c0.083-0.273,0.125-0.645,0.125-1.115s-0.042-0.832-0.125-1.082c-0.083-0.252-0.199-0.449-0.349-0.59s-0.339-0.236-0.568-0.287
			c-0.171-0.039-0.508-0.059-1.009-0.059H19.12z"/>
		<path d="M27.529,53.835l1.195-0.115c0.072,0.4,0.218,0.695,0.438,0.883c0.22,0.188,0.517,0.283,0.89,0.283
			c0.396,0,0.694-0.084,0.895-0.252s0.301-0.363,0.301-0.588c0-0.143-0.042-0.266-0.126-0.367c-0.084-0.1-0.232-0.188-0.442-0.264
			c-0.144-0.049-0.472-0.137-0.983-0.266c-0.659-0.162-1.121-0.363-1.386-0.602c-0.374-0.334-0.56-0.742-0.56-1.225
			c0-0.309,0.087-0.6,0.263-0.869s0.429-0.475,0.76-0.615c0.331-0.143,0.729-0.213,1.197-0.213c0.764,0,1.338,0.168,1.725,0.502
			c0.386,0.336,0.588,0.783,0.608,1.342l-1.229,0.053c-0.053-0.312-0.166-0.537-0.338-0.674s-0.432-0.205-0.778-0.205
			c-0.357,0-0.637,0.072-0.839,0.221c-0.13,0.094-0.195,0.219-0.195,0.377c0,0.145,0.061,0.268,0.183,0.369
			c0.155,0.131,0.531,0.266,1.129,0.406c0.598,0.143,1.04,0.287,1.326,0.438c0.286,0.152,0.51,0.357,0.672,0.619
			c0.162,0.262,0.243,0.584,0.243,0.969c0,0.35-0.097,0.676-0.291,0.98s-0.468,0.529-0.822,0.678s-0.795,0.223-1.324,0.223
			c-0.77,0-1.36-0.178-1.772-0.533S27.609,54.517,27.529,53.835z"/>
		<path d="M33.983,52.81c0-0.619,0.093-1.141,0.278-1.561c0.138-0.311,0.327-0.588,0.566-0.834s0.501-0.43,0.787-0.547
			c0.379-0.162,0.816-0.242,1.312-0.242c0.896,0,1.614,0.279,2.152,0.834c0.538,0.557,0.808,1.33,0.808,2.32
			c0,0.982-0.267,1.752-0.801,2.307s-1.248,0.832-2.142,0.832c-0.905,0-1.624-0.277-2.158-0.828
			C34.25,54.538,33.983,53.778,33.983,52.81z M35.249,52.769c0,0.689,0.159,1.211,0.477,1.566c0.318,0.355,0.723,0.533,1.212,0.533
			c0.49,0,0.892-0.176,1.206-0.529c0.314-0.352,0.471-0.881,0.471-1.588c0-0.697-0.153-1.217-0.458-1.561
			c-0.306-0.342-0.711-0.514-1.218-0.514c-0.506,0-0.914,0.174-1.224,0.521C35.404,51.544,35.249,52.067,35.249,52.769z"/>
		<path d="M41.599,55.815V49.78h1.229v5.01h3.055v1.025H41.599z"/>
		<path d="M47.473,49.729h1.229v3.297c0,0.521,0.015,0.861,0.045,1.016c0.053,0.25,0.178,0.449,0.375,0.6
			c0.198,0.152,0.468,0.227,0.812,0.227c0.349,0,0.611-0.07,0.789-0.213s0.284-0.318,0.32-0.525
			c0.036-0.207,0.054-0.553,0.054-1.033v-3.367h1.229v3.197c0,0.73-0.033,1.246-0.1,1.547c-0.066,0.303-0.189,0.557-0.367,0.764
			c-0.179,0.209-0.417,0.373-0.716,0.496s-0.689,0.186-1.171,0.186c-0.581,0-1.021-0.068-1.322-0.201
			c-0.3-0.135-0.538-0.309-0.711-0.523c-0.175-0.215-0.29-0.439-0.345-0.674c-0.08-0.35-0.12-0.863-0.12-1.545V49.729z"/>
		<path d="M55.711,55.815v-5.057h-1.806v-1.029h4.835v1.029H56.94v5.057H55.711z"/>
		<path d="M60.219,55.815v-6.086h1.229v6.086H60.219z"/>
		<path d="M63.091,52.81c0-0.619,0.093-1.141,0.278-1.561c0.138-0.311,0.327-0.588,0.566-0.834s0.501-0.43,0.787-0.547
			c0.379-0.162,0.816-0.242,1.312-0.242c0.896,0,1.614,0.279,2.152,0.834c0.538,0.557,0.808,1.33,0.808,2.32
			c0,0.982-0.267,1.752-0.801,2.307s-1.248,0.832-2.142,0.832c-0.905,0-1.624-0.277-2.158-0.828
			C63.358,54.538,63.091,53.778,63.091,52.81z M64.357,52.769c0,0.689,0.159,1.211,0.477,1.566c0.318,0.355,0.723,0.533,1.212,0.533
			c0.49,0,0.892-0.176,1.206-0.529c0.314-0.352,0.471-0.881,0.471-1.588c0-0.697-0.153-1.217-0.458-1.561
			c-0.306-0.342-0.711-0.514-1.218-0.514c-0.506,0-0.914,0.174-1.224,0.521C64.512,51.544,64.357,52.067,64.357,52.769z"/>
		<path d="M70.687,55.815v-6.086h1.195l2.49,4.064v-4.064h1.142v6.086h-1.233l-2.453-3.969v3.969H70.687z"/>
		<path d="M77.224,53.835l1.195-0.115c0.072,0.4,0.218,0.695,0.438,0.883c0.22,0.188,0.517,0.283,0.89,0.283
			c0.396,0,0.694-0.084,0.895-0.252s0.301-0.363,0.301-0.588c0-0.143-0.042-0.266-0.126-0.367c-0.084-0.1-0.232-0.188-0.442-0.264
			c-0.144-0.049-0.472-0.137-0.983-0.266c-0.659-0.162-1.121-0.363-1.386-0.602c-0.374-0.334-0.56-0.742-0.56-1.225
			c0-0.309,0.087-0.6,0.263-0.869s0.429-0.475,0.76-0.615c0.331-0.143,0.729-0.213,1.197-0.213c0.764,0,1.338,0.168,1.725,0.502
			c0.386,0.336,0.588,0.783,0.608,1.342l-1.229,0.053c-0.053-0.312-0.166-0.537-0.338-0.674s-0.432-0.205-0.778-0.205
			c-0.357,0-0.637,0.072-0.839,0.221c-0.13,0.094-0.195,0.219-0.195,0.377c0,0.145,0.061,0.268,0.183,0.369
			c0.155,0.131,0.531,0.266,1.129,0.406c0.598,0.143,1.04,0.287,1.326,0.438c0.286,0.152,0.51,0.357,0.672,0.619
			c0.162,0.262,0.243,0.584,0.243,0.969c0,0.35-0.097,0.676-0.291,0.98s-0.468,0.529-0.822,0.678s-0.795,0.223-1.324,0.223
			c-0.77,0-1.36-0.178-1.772-0.533S77.304,54.517,77.224,53.835z"/>
		<path d="M87.02,55.815v-6.086h4.171v1.029h-2.942V52.2h2.54v1.029h-2.54v2.586H87.02z"/>
		<path d="M92.677,52.81c0-0.619,0.093-1.141,0.278-1.561c0.139-0.311,0.328-0.588,0.566-0.834c0.24-0.246,0.502-0.43,0.787-0.547
			c0.379-0.162,0.816-0.242,1.312-0.242c0.896,0,1.614,0.279,2.151,0.834c0.539,0.557,0.809,1.33,0.809,2.32
			c0,0.982-0.268,1.752-0.802,2.307s-1.248,0.832-2.142,0.832c-0.904,0-1.624-0.277-2.158-0.828
			C92.944,54.538,92.677,53.778,92.677,52.81z M93.943,52.769c0,0.689,0.159,1.211,0.477,1.566c0.318,0.355,0.723,0.533,1.213,0.533
			s0.892-0.176,1.205-0.529c0.314-0.352,0.471-0.881,0.471-1.588c0-0.697-0.152-1.217-0.458-1.561
			c-0.306-0.342-0.712-0.514-1.218-0.514s-0.914,0.174-1.225,0.521C94.097,51.544,93.943,52.067,93.943,52.769z"/>
		<path d="M100.264,55.815v-6.086h2.585c0.65,0,1.123,0.055,1.418,0.164s0.531,0.305,0.707,0.584c0.178,0.279,0.266,0.6,0.266,0.959
			c0,0.457-0.133,0.834-0.402,1.131c-0.268,0.297-0.669,0.484-1.203,0.562c0.266,0.154,0.484,0.324,0.658,0.51
			c0.172,0.186,0.406,0.516,0.699,0.988l0.742,1.188h-1.469l-0.889-1.324c-0.314-0.473-0.531-0.771-0.646-0.895
			c-0.117-0.123-0.24-0.207-0.369-0.254c-0.131-0.045-0.337-0.068-0.619-0.068h-0.249v2.541H100.264z M101.493,52.304h0.909
			c0.59,0,0.957-0.025,1.104-0.074c0.146-0.051,0.262-0.137,0.345-0.258s0.124-0.273,0.124-0.457c0-0.205-0.055-0.369-0.164-0.496
			c-0.109-0.125-0.264-0.205-0.463-0.238c-0.1-0.014-0.398-0.021-0.896-0.021h-0.958V52.304z"/>
		<path d="M114.098,53.577l1.19,0.379c-0.182,0.664-0.486,1.156-0.91,1.479c-0.426,0.322-0.964,0.484-1.617,0.484
			c-0.808,0-1.472-0.277-1.992-0.828c-0.52-0.553-0.78-1.307-0.78-2.264c0-1.014,0.262-1.801,0.784-2.359
			c0.523-0.561,1.211-0.842,2.063-0.842c0.744,0,1.349,0.221,1.813,0.66c0.277,0.26,0.484,0.635,0.623,1.121l-1.217,0.291
			c-0.072-0.316-0.222-0.564-0.45-0.748c-0.228-0.182-0.505-0.273-0.832-0.273c-0.451,0-0.817,0.162-1.098,0.486
			c-0.28,0.322-0.421,0.848-0.421,1.572c0,0.77,0.138,1.316,0.414,1.643c0.277,0.328,0.637,0.49,1.08,0.49
			c0.326,0,0.607-0.104,0.842-0.311C113.827,54.351,113.996,54.022,114.098,53.577z"/>
		<path d="M117.07,55.815v-6.086h2.586c0.65,0,1.123,0.055,1.418,0.164s0.53,0.305,0.707,0.584c0.178,0.279,0.266,0.6,0.266,0.959
			c0,0.457-0.134,0.834-0.402,1.131s-0.67,0.484-1.203,0.562c0.266,0.154,0.484,0.324,0.657,0.51s0.406,0.516,0.699,0.988
			l0.743,1.188h-1.469l-0.889-1.324c-0.315-0.473-0.531-0.771-0.647-0.895s-0.239-0.207-0.369-0.254
			c-0.13-0.045-0.337-0.068-0.618-0.068h-0.25v2.541H117.07z M118.298,52.304h0.909c0.59,0,0.958-0.025,1.104-0.074
			c0.146-0.051,0.262-0.137,0.344-0.258c0.084-0.121,0.125-0.273,0.125-0.457c0-0.205-0.055-0.369-0.164-0.496
			c-0.109-0.125-0.264-0.205-0.463-0.238c-0.1-0.014-0.398-0.021-0.896-0.021h-0.959V52.304z"/>
		<path d="M123.89,55.815v-6.086h1.229v6.086H123.89z"/>
		<path d="M128.38,55.815v-5.057h-1.805v-1.029h4.834v1.029h-1.801v5.057H128.38z"/>
		<path d="M132.888,55.815v-6.086h1.229v6.086H132.888z"/>
		<path d="M139.903,53.577l1.19,0.379c-0.182,0.664-0.486,1.156-0.91,1.479c-0.426,0.322-0.964,0.484-1.617,0.484
			c-0.808,0-1.472-0.277-1.992-0.828c-0.52-0.553-0.78-1.307-0.78-2.264c0-1.014,0.262-1.801,0.784-2.359
			c0.523-0.561,1.211-0.842,2.063-0.842c0.744,0,1.349,0.221,1.813,0.66c0.277,0.26,0.484,0.635,0.623,1.121l-1.217,0.291
			c-0.072-0.316-0.222-0.564-0.45-0.748c-0.228-0.182-0.505-0.273-0.832-0.273c-0.451,0-0.817,0.162-1.098,0.486
			c-0.28,0.322-0.421,0.848-0.421,1.572c0,0.77,0.138,1.316,0.414,1.643c0.277,0.328,0.637,0.49,1.08,0.49
			c0.326,0,0.607-0.104,0.842-0.311C139.631,54.351,139.8,54.022,139.903,53.577z"/>
		<path d="M148.358,55.815h-1.337l-0.531-1.383h-2.432l-0.502,1.383h-1.304l2.37-6.086h1.299L148.358,55.815z M146.095,53.407
			l-0.838-2.258l-0.822,2.258H146.095z"/>
		<path d="M149.765,55.815V49.78h1.229v5.01h3.055v1.025H149.765z"/>
		<path d="M158.693,55.815v-6.086h1.229v6.086H158.693z"/>
		<path d="M161.826,55.815v-6.086h1.195l2.49,4.064v-4.064h1.143v6.086h-1.232l-2.453-3.969v3.969H161.826z"/>
		<path d="M170.229,55.815l-2.176-6.086h1.332l1.541,4.504l1.488-4.504h1.305l-2.18,6.086H170.229z"/>
		<path d="M175.066,55.815v-6.086h4.512v1.029h-3.283v1.35h3.055v1.025h-3.055v1.656h3.4v1.025H175.066z"/>
		<path d="M181.473,55.815v-6.086h1.195l2.49,4.064v-4.064h1.141v6.086h-1.232l-2.453-3.969v3.969H181.473z"/>
		<path d="M189.689,55.815v-5.057h-1.805v-1.029h4.834v1.029h-1.801v5.057H189.689z"/>
		<path d="M193.986,52.81c0-0.619,0.092-1.141,0.277-1.561c0.139-0.311,0.328-0.588,0.566-0.834c0.24-0.246,0.502-0.43,0.787-0.547
			c0.379-0.162,0.816-0.242,1.311-0.242c0.896,0,1.615,0.279,2.152,0.834c0.539,0.557,0.809,1.33,0.809,2.32
			c0,0.982-0.268,1.752-0.803,2.307c-0.533,0.555-1.248,0.832-2.141,0.832c-0.904,0-1.625-0.277-2.158-0.828
			C194.252,54.538,193.986,53.778,193.986,52.81z M195.252,52.769c0,0.689,0.158,1.211,0.477,1.566s0.723,0.533,1.213,0.533
			s0.891-0.176,1.205-0.529c0.314-0.352,0.471-0.881,0.471-1.588c0-0.697-0.152-1.217-0.459-1.561
			c-0.305-0.342-0.711-0.514-1.217-0.514s-0.914,0.174-1.225,0.521C195.406,51.544,195.252,52.067,195.252,52.769z"/>
		<path d="M201.572,55.815v-6.086h2.586c0.65,0,1.123,0.055,1.418,0.164s0.531,0.305,0.707,0.584c0.178,0.279,0.266,0.6,0.266,0.959
			c0,0.457-0.133,0.834-0.402,1.131c-0.268,0.297-0.67,0.484-1.203,0.562c0.266,0.154,0.484,0.324,0.658,0.51
			c0.172,0.186,0.406,0.516,0.699,0.988l0.742,1.188h-1.469l-0.889-1.324c-0.314-0.473-0.531-0.771-0.646-0.895
			c-0.117-0.123-0.24-0.207-0.369-0.254c-0.131-0.045-0.338-0.068-0.619-0.068h-0.25v2.541H201.572z M202.801,52.304h0.91
			c0.59,0,0.957-0.025,1.104-0.074c0.146-0.051,0.262-0.137,0.344-0.258c0.084-0.121,0.125-0.273,0.125-0.457
			c0-0.205-0.055-0.369-0.164-0.496c-0.109-0.125-0.264-0.205-0.463-0.238c-0.1-0.014-0.398-0.021-0.896-0.021h-0.959V52.304z"/>
		<path d="M210.027,55.815v-2.561l-2.229-3.525h1.439l1.432,2.408l1.404-2.408h1.414l-2.236,3.533v2.553H210.027z"/>
	</g>
	
		<line fill="none" stroke="#000000" stroke-width="1.875" stroke-miterlimit="10" x1="237.225" y1="15.09" x2="237.225" y2="56.99"/>
	<path fill="#28AAE1" d="M202.064,12.968c-24.318-9.452-35.439-10.896-46.412-10.896c-0.094,0-0.447,0-0.541,0
		c-10.972,0-22.093,1.444-46.412,10.896c-1.222,0.473-0.652,1.269,0.443,0.877c19.723-7.075,33.734-9.562,46.041-9.562
		c0.137,0,0.264,0,0.396,0c12.307,0,26.318,2.487,46.039,9.562C202.715,14.236,203.285,13.44,202.064,12.968z"/>
	<path fill="#47C6F3" d="M125.061,14.444c15.793-4.758,23.018-5.725,30.146-5.725c0.059,0,0.289,0,0.35,0
		c7.129,0,14.352,0.967,30.146,5.725c0.793,0.239,0.424,0.951-0.287,0.754c-12.811-3.562-21.912-4.815-29.904-4.815
		c-0.09,0-0.174,0-0.26,0c-7.992,0-17.093,1.253-29.902,4.815C124.636,15.396,124.267,14.684,125.061,14.444z"/>
	<path fill="#ACE0F9" d="M168.016,16.724c-5.068-1.28-8.762-1.693-12.459-1.695c-0.002,0-0.004,0-0.006,0l0,0
		c-0.061,0-0.279,0-0.338,0l0,0c-0.004,0-0.006,0-0.006,0c-3.699,0.002-7.392,0.415-12.458,1.695
		c-0.851,0.215-0.912,1.167-0.002,1.021c4.681-0.742,8.706-1.053,12.509-1.053h0.004c0.082,0,0.162,0,0.244,0h0.002
		c3.807,0,7.828,0.311,12.512,1.053C168.928,17.891,168.865,16.938,168.016,16.724z"/>
</g>
</svg>
